<svg width="910" height="100" viewBox="0 0 910 100" fill="none" xmlns="http://www.w3.org/2000/svg">
<path d="M63.8833 36.1167C67.4928 36.0084 70.9181 34.4984 73.4329 31.907C75.9477 29.3156 77.3542 25.8465 77.3542 22.2354C77.3542 18.6244 75.9477 15.1553 73.4329 12.5639C70.9181 9.97248 67.4928 8.46251 63.8833 8.35419H36.1167C32.5072 8.46251 29.0819 9.97248 26.5671 12.5639C24.0523 15.1553 22.6458 18.6244 22.6458 22.2354C22.6458 25.8465 24.0523 29.3156 26.5671 31.907C29.0819 34.4984 32.5072 36.0084 36.1167 36.1167C32.4757 36.1798 29.0051 37.6704 26.4526 40.2676C23.9 42.8647 22.4697 46.3606 22.4697 50.0021C22.4697 53.6436 23.9 57.1395 26.4526 59.7366C29.0051 62.3338 32.4757 63.8244 36.1167 63.8875C32.4935 63.9763 29.0485 65.478 26.5174 68.0719C23.9862 70.6659 22.5693 74.1466 22.5693 77.7709C22.5693 81.3951 23.9862 84.8758 26.5174 87.4698C29.0485 90.0637 32.4935 91.5654 36.1167 91.6542C39.7988 91.652 43.3294 90.188 45.9327 87.5839C48.536 84.9799 49.9989 81.4488 50 77.7667V36.1167H63.8833Z" fill="white" fill-opacity="0.5"/>
<path d="M63.8833 63.8833C71.5509 63.8833 77.7667 57.6675 77.7667 50C77.7667 42.3324 71.5509 36.1166 63.8833 36.1166C56.2158 36.1166 50 42.3324 50 50C50 57.6675 56.2158 63.8833 63.8833 63.8833Z" fill="white" fill-opacity="0.5"/>
<path d="M284.18 9.375L290.625 82.2852L320 90.625L349.258 82.2852L355.83 9.375H284.18ZM342.285 26.6699L341.817 31.2793L341.651 33.1836H307.334L308.135 42.3828H340.86L340.537 44.7559L338.467 68.4082L338.301 69.9902L320.039 75.0293V75.0586H319.922L319.893 75.0684V75.0586H319.883L301.465 69.9805L300.352 55.8594H309.248L309.883 63.0078L319.883 65.7129H319.922L329.883 63.0176L330.996 51.4355H319.893V51.4258H299.883L297.656 26.6699L297.49 24.2969H342.442L342.285 26.6699Z" fill="white" fill-opacity="0.5"/>
<path d="M557.467 13.0958H622.529L616.612 79.9041L589.929 87.4541L563.392 79.8999L557.467 13.0958ZM610.417 26.7666L569.583 26.7583L570.242 34.8791L601.612 34.8874L600.825 43.3041H580.25L580.996 51.2749H600.15L599.017 62.1916L590 64.6833L580.846 62.1708L580.258 55.6333H572.175L573.075 67.5791L590 72.8499L606.646 68.1124L610.417 26.7666Z" fill="white" fill-opacity="0.5"/>
<path d="M910 48.7042C910 42.0792 901.704 35.8 888.983 31.9084C891.921 18.9459 890.617 8.62919 884.867 5.32502C883.473 4.54469 881.897 4.1519 880.3 4.18752V8.72919C881.237 8.72919 881.992 8.91669 882.625 9.26252C885.396 10.8542 886.6 16.9042 885.662 24.6917C885.438 26.6084 885.071 28.625 884.621 30.6834C880.361 29.6568 876.038 28.9149 871.679 28.4625C869.083 24.8804 866.25 21.4756 863.2 18.2709C869.846 12.0959 876.083 8.71252 880.325 8.71252V4.16669C874.717 4.16669 867.379 8.16252 859.958 15.0917C852.542 8.20835 845.2 4.25002 839.596 4.25002V8.79169C843.817 8.79169 850.075 12.1584 856.721 18.2917C853.867 21.2917 851.013 24.6917 848.3 28.4625C843.933 28.9099 839.601 29.6589 835.337 30.7042C834.867 28.6667 834.521 26.6917 834.275 24.7959C833.317 17.0042 834.5 10.9542 837.254 9.34585C837.862 8.97919 838.658 8.81252 839.596 8.81252V4.27085C837.887 4.27085 836.333 4.63752 834.992 5.40835C829.263 8.71252 827.979 19.0042 830.933 31.9292C818.254 35.8459 810 42.1 810 48.7042C810 55.3292 818.296 61.6084 831.017 65.4959C828.079 78.4625 829.383 88.7792 835.133 92.0792C836.458 92.8542 838.008 93.2209 839.717 93.2209C845.325 93.2209 852.662 89.225 860.083 82.2959C867.5 89.1834 874.837 93.1375 880.446 93.1375C882.055 93.1715 883.643 92.7775 885.05 91.9959C890.779 88.6959 892.062 78.4042 889.108 65.4792C901.746 61.5875 910 55.3084 910 48.7042ZM883.458 35.1084C882.667 37.8328 881.749 40.519 880.708 43.1584C879.005 39.8448 877.134 36.6199 875.104 33.4959C878 33.925 880.792 34.4542 883.463 35.1084H883.458ZM874.125 56.8167C872.537 59.5667 870.904 62.1792 869.212 64.6042C863.097 65.1432 856.946 65.1502 850.829 64.625C847.321 59.6133 844.252 54.3074 841.658 48.7667C844.248 43.213 847.304 37.8884 850.792 32.85C856.906 32.3099 863.055 32.3015 869.171 32.825C870.862 35.25 872.517 37.8417 874.104 40.575C875.654 43.2417 877.062 45.95 878.346 48.6834C877.048 51.4498 875.64 54.1631 874.125 56.8167ZM880.708 54.1667C881.808 56.8959 882.75 59.6292 883.521 62.2792C880.854 62.9334 878.037 63.4834 875.125 63.9084C877.147 60.7559 879.01 57.5047 880.708 54.1667ZM860.042 75.9167C858.146 73.9584 856.25 71.7792 854.375 69.3917C856.208 69.475 858.083 69.5375 859.979 69.5375C861.896 69.5375 863.792 69.4959 865.646 69.3917C863.812 71.7792 861.917 73.9584 860.042 75.9167ZM844.875 63.9084C842.066 63.5013 839.277 62.9646 836.517 62.3C837.271 59.6709 838.208 56.9584 839.267 54.25C840.104 55.875 840.983 57.5084 841.942 59.1417C842.9 60.7709 843.875 62.3625 844.875 63.9084ZM859.937 21.4917C861.833 23.45 863.729 25.6292 865.604 28.0167C863.771 27.9334 861.896 27.8709 860 27.8709C858.083 27.8709 856.188 27.9125 854.333 28.0167C856.167 25.6292 858.062 23.45 859.937 21.4917ZM844.854 33.5C842.833 36.6456 840.969 39.8899 839.271 43.2209C838.201 40.5644 837.262 37.857 836.458 35.1084C839.125 34.475 841.942 33.925 844.854 33.5ZM826.408 59.0167C819.192 55.9417 814.525 51.9042 814.525 48.7042C814.525 45.5042 819.192 41.4459 826.408 38.3917C828.158 37.6375 830.075 36.9625 832.054 36.3334C833.217 40.325 834.746 44.4834 836.637 48.7459C834.852 52.755 833.341 56.8812 832.117 61.0959C830.181 60.4965 828.276 59.8026 826.408 59.0167ZM837.375 88.1417C834.604 86.5584 833.4 80.5 834.337 72.7167C834.562 70.8 834.929 68.7792 835.379 66.7209C839.371 67.7 843.733 68.4542 848.321 68.9459C850.917 72.5279 853.75 75.9327 856.8 79.1375C850.154 85.3125 843.917 88.6959 839.675 88.6959C838.875 88.7046 838.085 88.5157 837.375 88.1459V88.1417ZM885.725 72.6125C886.683 80.4 885.5 86.4542 882.746 88.0625C882.137 88.4292 881.342 88.5917 880.404 88.5917C876.183 88.5917 869.925 85.2292 863.279 79.0917C866.133 76.1 868.987 72.6959 871.7 68.925C876.067 68.4776 880.399 67.7286 884.662 66.6834C885.133 68.7417 885.496 70.7167 885.725 72.6125ZM893.571 59.0167C891.821 59.7709 889.904 60.4459 887.925 61.075C886.679 56.8388 885.148 52.6919 883.342 48.6625C885.217 44.425 886.721 40.2875 887.862 36.3125C889.883 36.9417 891.796 37.6375 893.592 38.3917C900.808 41.4667 905.475 45.5042 905.475 48.7042C905.454 51.9042 900.787 55.9625 893.571 59.0167Z" fill="white" fill-opacity="0.5"/>
<path d="M859.979 58.0208C862.45 58.0208 864.82 57.0393 866.567 55.2921C868.314 53.5448 869.296 51.1751 869.296 48.7042C869.296 46.2332 868.314 43.8635 866.567 42.1163C864.82 40.3691 862.45 39.3875 859.979 39.3875C857.508 39.3875 855.138 40.3691 853.391 42.1163C851.644 43.8635 850.662 46.2332 850.662 48.7042C850.662 51.1751 851.644 53.5448 853.391 55.2921C855.138 57.0393 857.508 58.0208 859.979 58.0208Z" fill="white" fill-opacity="0.5"/>
</svg>
